<svg xmlns="http://www.w3.org/2000/svg" viewBox="0 0 1200 630">
  <defs>
    <linearGradient id="bg" x1="0" y1="0" x2="1200" y2="630" gradientUnits="userSpaceOnUse">
      <stop offset="0" stop-color="#12305f"/>
      <stop offset="1" stop-color="#1e4686"/>
    </linearGradient>
  </defs>
  <rect width="1200" height="630" fill="url(#bg)"/>
  <path d="M -40 460 C 260 400, 420 520, 700 440 S 1180 380, 1260 430" fill="none" stroke="#b98a2e" stroke-width="2" stroke-dasharray="10 10" opacity="0.55"/>
  <path d="M -40 500 C 260 440, 420 560, 700 480 S 1180 420, 1260 470" fill="none" stroke="#ffffff" stroke-width="1" stroke-dasharray="4 10" opacity="0.25"/>

  <g opacity="0.9">
    <circle cx="120" cy="130" r="26" fill="none" stroke="#b98a2e" stroke-width="3"/>
    <circle cx="120" cy="130" r="4" fill="#b98a2e"/>
    <circle cx="112" cy="122" r="3" fill="#b98a2e"/>
    <circle cx="128" cy="122" r="3" fill="#b98a2e"/>
    <circle cx="112" cy="138" r="3" fill="#b98a2e"/>
    <circle cx="128" cy="138" r="3" fill="#b98a2e"/>
  </g>
  <g opacity="0.8" transform="translate(1020,90)">
    <rect x="-14" y="0" width="28" height="70" rx="6" fill="none" stroke="#ffffff" stroke-width="3"/>
    <rect x="-6" y="10" width="12" height="50" fill="#b98a2e"/>
  </g>

  <text x="90" y="290" font-family="Poppins, Arial, sans-serif" font-weight="700" font-size="64" fill="#ffffff">Sourcing Fair</text>
  <text x="90" y="345" font-family="Inter, Arial, sans-serif" font-weight="500" font-size="27" fill="#d9ad55">RMG Trims &amp; Accessories Manufacturer and Supplier</text>
  <text x="90" y="400" font-family="Inter, Arial, sans-serif" font-weight="400" font-size="22" fill="#ffffff" opacity="0.75">Uttara, Dhaka, Bangladesh &#8226; 10+ years &#8226; 520+ customers served</text>

  <g transform="translate(90,470)">
    <circle cx="10" cy="0" r="4" fill="#b98a2e"/>
    <text x="24" y="5" font-family="IBM Plex Mono, monospace" font-size="18" fill="#ffffff" opacity="0.85">sourcingfairbd.com</text>
  </g>
</svg>
